<?xml version="1.0" encoding="utf-8"?>
<!-- Generator: Adobe Illustrator 26.0.3, SVG Export Plug-In . SVG Version: 6.00 Build 0)  -->
<svg version="1.1" id="Ebene_1" xmlns="http://www.w3.org/2000/svg" xmlns:xlink="http://www.w3.org/1999/xlink" x="0px" y="0px"
	 viewBox="0 0 351.5 351.5" style="enable-background:new 0 0 351.5 351.5;" xml:space="preserve">
<style type="text/css">
	.st0{fill:#1D1D1B;}
</style>
<g>
	<path class="st0" d="M274.47,230.34c0.4,0.19,0.62,0.12,0.67-0.22l-0.85-0.81c-0.38-0.36-0.72-0.4-1.02-0.12
		c0.02,0.21,0.13,0.41,0.32,0.59C273.77,229.96,274.06,230.15,274.47,230.34L274.47,230.34z M292.32,191.58
		c0.29,0.18,0.56,0.21,0.79,0.06c0.12-0.79-0.12-1.37-0.71-1.74l-1.32-0.82c-0.32,0.38-0.27,0.85,0.16,1.39
		C291.66,191.03,292.02,191.4,292.32,191.58L292.32,191.58z M79.34,230.7l-0.84,0.83c0.05,0.34,0.28,0.4,0.67,0.2
		c0.4-0.2,0.69-0.39,0.88-0.58c0.19-0.18,0.29-0.38,0.31-0.6C80.05,230.28,79.71,230.33,79.34,230.7L79.34,230.7z M61.6,187.09
		l-1.3,0.85c-0.58,0.38-0.81,0.96-0.67,1.75c0.23,0.14,0.5,0.11,0.79-0.08c0.29-0.19,0.64-0.56,1.06-1.13
		C61.89,187.93,61.93,187.46,61.6,187.09L61.6,187.09z M78.58,160.24l-0.83-2.09l-2.43,4.21L78.58,160.24L78.58,160.24z
		 M144.89,103.28c0.13,0.15,0.32,0.22,0.58,0.22c0.26,0,0.61-0.08,1.06-0.22c0.45-0.15,0.61-0.37,0.48-0.66l-1.16,0.01
		C145.33,102.63,145.01,102.85,144.89,103.28L144.89,103.28z M190.2,122c-0.39,0-0.58,0.44-0.57,1.31c0,0.58,0.13,1.17,0.4,1.75
		c0.26,0.58,0.58,0.87,0.97,0.87c0.64,0,1.31-0.52,2.02-1.54c0.37-0.54,0.63-1.05,0.8-1.55c-0.63,0-1.28-0.13-1.97-0.41
		C191.13,122.14,190.58,122,190.2,122L190.2,122z M194.06,121.54c0,0.42-0.09,0.85-0.24,1.3c0.02,0,0.04,0.01,0.06,0.01
		c0.38,0,0.58-0.22,0.57-0.66c0-0.14-0.07-0.33-0.2-0.55C194.12,121.43,194.06,121.39,194.06,121.54L194.06,121.54z M166.45,93.31
		l-2.89,1.33l2.9-0.02L166.45,93.31L166.45,93.31z M274.31,156.75l-0.78,2.11l3.3,2.05L274.31,156.75L274.31,156.75z M305.61,130.02
		c-0.9,1.46-1.71,3.04-2.44,4.75c-0.72,1.71-1.43,3.5-2.13,5.37l-3.25,8.77c-0.95,2.58-2,5.02-3.13,7.34
		c-1.13,2.32-2.45,4.31-3.97,5.95c-1.15-1.29-1.75-2.6-1.79-3.92c-0.05-1.33,0.14-2.57,0.58-3.74c0.61-1.63,1.4-3.16,2.37-4.57
		c0.97-1.4,1.81-3.04,2.5-4.92c0.78-2.11,1.02-3.97,0.72-5.6l-5.77,4.61l-32.4,77.36c1.68-10.06,3.35-20.12,5.1-30.15
		c4.91-28.14,8.88-56.49,10.4-85.05l-0.44-2.49c-0.15-4.08,0.79-8.56,2.83-13.44c2.04-4.88,1.52-9.49,1.38-13.09
		c-0.07-1.92-0.96-8.18-2.18-9.64c-1.23-1.45-5.39-7.83-8.68-8.26c-0.9,7.4-0.44,18.74-1.32,23.28c-0.88,4.54-2.07,8.92-3.54,13.14
		l0.56-46.1c-0.89,1.29-2.03,1.99-3.43,2.11l-2.79,0.25c-1.63,0.15-2.65,1.08-3.05,2.8c-4.14,8.08-4.78,30.31-6.14,39.38
		c-1.07,8.86-1.91,19.06-3.34,27.86c-1.43,8.8-2.71,17.98-3.89,26.99c-1.19,9.02-2.5,19.01-4.99,27.42
		c-2.16,11.03-5.18,21.19-8,32.21c-2.36,11-6.57,23.05-10.19,33c-3.5-5.95-8.02-15.42-10.85-22.27
		c-2.83-6.85-10.26-13.77-13.08-20.51c0.58-3.42,1.92-6.5,4.04-9.21c2.12-2.72,4.3-5.32,6.55-7.81c2.24-2.49,4.24-5.13,6.01-7.95
		c1.31-2.09,2.16-4.41,2.55-6.95c2.05-2.34,3.77-4.83,5.14-6.3c2.81-3,3.9-8.41,5.54-13.96c-0.43-6.7-0.12-8.29-1.4-16.88
		c-1.28-8.58-3.04-12.26-5.35-20.84c-2.31-8.58-5.26-16.72-8.85-24.42c-3.59-7.7-7.98-14.08-13.16-19.14
		c-3.76-3.76-7.45-6.54-11.06-8.34c-3.62-1.8-7.3-3.3-11.04-4.52c-3.74-1.21-7.61-2.5-11.61-3.86c-4-1.36-8.33-3.48-12.98-6.36
		l1.17,1.3c2.2,2.46,4.51,5.14,6.91,8.04c2.4,2.9,3.87,5.8,4.4,8.71c-1.42-0.72-2.72-1.91-3.89-3.58c-1.17-1.67-2.59-2.64-4.27-2.92
		l8.19,12.18c-2.46-1.3-4.82-2.74-7.08-4.32c-2.26-1.59-4.69-2.81-7.27-3.67l0.01,1.09c0,0.58,0.2,1.02,0.59,1.31
		c7.62,3.88,14.46,7.12,20.53,9.7c6.07,2.58,11.43,5.46,16.08,8.63c4.66,3.18,8.61,7.19,11.86,12.05
		c3.25,4.86,5.93,11.51,8.05,19.94c0.01,1.31,0.09,3.46,0.24,6.44c0.15,2.99,0.33,6.26,0.55,9.83c0.13,2.15,0.25,2.54,0.37,3.3
		c-0.91,0.97-1.78,1.99-2.57,3.08c-2.78,3.86-5.44,7.89-7.96,12.09c-2.53,4.2-5.07,8.34-7.6,12.42c-2.54,4.08-5.74,7.5-9.61,10.25
		c-4.17-5.17-7.19-11.1-9.07-17.8c-0.73-2.58-1.61-5.06-2.57-7.49l-3.67-60.7l-2.92-4.13c-0.64,0.73-0.95,1.75-0.95,3.07
		c0.01,1.17,0.18,2.26,0.5,3.27c0.33,1.02,0.5,2.04,0.5,3.06c0,0.73-0.18,1.42-0.57,2.08c-0.38,0.66-1.15,1.14-2.31,1.44
		c-0.29-0.58-0.52-1.2-0.73-1.83c0.04-0.11,0.11-0.23,0.15-0.34c-0.08,0.01-0.17-0.01-0.26,0c-0.2-0.67-0.35-1.36-0.45-2.08
		c-0.2-1.53-0.31-3.09-0.32-4.7l-0.04-5.46c-0.01-1.17-0.05-2.29-0.12-3.39c-0.07-1.09-0.24-2.15-0.5-3.17l0.12,18.77
		c-0.66-0.06-1.33-0.17-2.03-0.37c-1.3-0.36-2.3-0.52-3-0.45c-0.7,0.06-1.02,0.81-0.97,2.25c0.04,0.96,0.3,1.9,0.81,2.82
		c0.5,0.92,1.1,1.35,1.8,1.28c1.11-0.1,2.24-0.99,3.4-2.62l0.26,40.46c-1.02-0.32-1.88-0.9-2.51-1.8c-1.11-1.58-2.05-3.37-2.83-5.35
		c-0.77-1.98-1.6-3.83-2.48-5.56c-0.88-1.73-2.26-2.74-4.14-3.06c0.84,3.78,1.96,7.29,3.37,10.54c1.4,3.25,2.88,6.73,4.42,10.45
		l-5.48,3.38l9.86,21.88l0.1,15.31l3.7,3.91c0.25-0.58,0.63-1.42,1.14-2.52c0.46-0.99,1.1-1.47,1.88-1.57l5.86,13.01l-24.35,42.64
		c-6.18-15.35-11.5-31.19-15.96-47.53c-4.46-16.34-8.75-32.76-12.87-49.25c-4.12-16.49-8.18-32.99-12.18-49.5
		c-4-16.5-8.52-32.72-13.55-48.65l-4.19,0.38c-0.19,1.22-0.26,2.31-0.23,3.27c0.04,0.96,0.08,2.04,0.12,3.24
		c0.19,5.04,0.83,9.92,1.94,14.64c1.11,4.72,2.28,9.37,3.5,13.96c1.22,4.59,2.38,9.18,3.49,13.78c1.1,4.6,1.75,9.42,1.94,14.46
		c0.04,1.2,0.09,2.34,0.13,3.42c0.04,1.08-0.04,2.23-0.22,3.45c-1.68-1.3-3.33-3.07-4.93-5.34c-1.61-2.26-2.46-4.84-2.57-7.72
		c-0.05-1.44,0.02-2.53,0.23-3.27l-8.68-16.57l-3.39,3.19l-6.96-8.05c2.03,16.93,4.86,33.41,8.5,49.47
		c3.63,16.06,7.67,31.9,12.1,47.52c4.44,15.62,9.04,31.17,13.82,46.64c2.88,9.33,4.09,18.65,5.65,28.03L62.49,145.8l-5.87-4.49
		c-0.27,1.64,0.02,3.49,0.84,5.58c0.73,1.86,1.6,3.48,2.61,4.87c1,1.39,1.83,2.9,2.47,4.52c0.46,1.16,0.68,2.4,0.66,3.73
		c-0.02,1.33-0.59,2.65-1.71,3.96c-1.55-1.61-2.91-3.57-4.09-5.86c-1.18-2.29-2.27-4.71-3.28-7.27l-3.44-8.7
		c-0.73-1.85-1.48-3.63-2.24-5.32c-0.76-1.69-1.61-3.25-2.54-4.69l62.66,158.51l-49.18-83.3c0.32,1.04,0.72,2.04,1.22,3
		c0.49,0.96,1.03,1.93,1.6,2.9l2.7,4.57c0.79,1.34,1.49,2.72,2.11,4.14c0.62,1.42,1.02,2.9,1.2,4.46c-0.98,0.58-1.77,0.74-2.37,0.47
		c-0.6-0.27-1.08-0.71-1.44-1.32c-0.5-0.85-0.89-1.82-1.16-2.9c-0.27-1.08-0.69-2.11-1.27-3.09c-0.65-1.1-1.38-1.72-2.21-1.87
		l-0.04,5.55l37.48,72.07c2.24,0.29,4.01,1.48,5.31,3.57c1.31,2.09,2.72,3.92,4.24,5.5c0.08-0.85,0.36-1.51,0.82-1.98
		c0.65-0.65,1.43-0.7,2.34-0.15c0.91,0.55,1.61,0.97,2.08,1.27l0.39-3.27l1.47,3.72l6.6,3.57c-0.08-1.11-0.17-2.73-0.28-4.85
		c-0.11-2.12,0.34-3.51,1.36-4.17c0.72-0.47,1.56-0.43,2.5,0.12c-0.89-4.08-2.1-8.18-3.63-12.29c-1.2-3.22-1.65-6.52-1.39-9.89
		c0.82,2.11,1.7,4.24,2.44,6.31c1.3,3.62,2.89,7.09,4.77,10.41c1.88,3.32,4.84,6.25,8.91,8.78l-0.05-1.44l-0.25-2.4
		c0.02-0.01,0.04,0.02,0.06,0.01l1.57-4.31c-0.39,0.6-1.05,0.48-1.81,0.12c0.12-1.31,0.43-2.45,1.12-3.24
		c0.72,0.66,1.55,1.06,2.5,1.22c0.94,0.15,6.39,0.81,7.13,1.71c-1.78-3.94-7.37-8.19-7.53-12.52c-0.21-5.52,5.49-10.84,7.86-16.24
		c2.37-5.39,5.39-10.6,9.06-15.62c3.67-5.03,7.63-9.9,11.9-14.61c4.26-4.72,8.07-9.27,11.41-13.67l27.23,42.91l0.05,1.44
		c0.13,3.6,1.17,6.4,3.11,8.39c1.94,2,4.05,3.79,6.33,5.4c2.28,1.6,4.38,3.34,6.33,5.21c1.82,1.76,2.82,4.21,3.03,7.3
		c-1.72,0.37-4.54,3.63-5.6,2.05l1.67,4.27c0.56,0.46,2.66-3.31,4-5.08c0.02,1.33-0.04,2.47-0.2,3.3c0.69-0.3,1.5-0.49,2.43-0.58
		c1.16-0.1,1.99,0.24,2.49,1.04c0.49,0.8,0.88,1.73,1.15,2.79c0.27,1.06,0.72,2.1,1.34,3.13c0.62,1.03,1.64,1.6,3.04,1.71
		c0.33-1.18,0.47-2.14,0.52-2.99c0.02,0.3,0.04,0.58,0.03,0.91c-0.06,2.12-0.12,3.74-0.18,4.86l5.42-3.09l-0.48,2.01
		c1.82-1.37,2.69-3.08,2.61-5.11c0-0.11,0.01-0.23,0.01-0.34l0.35-0.94l0.46,3.26c0.46-0.31,1.15-0.75,2.05-1.32
		c0.9-0.57,1.68-0.53,2.35,0.1c0.47,0.45,0.76,1.1,0.86,1.95c1.49-1.61,2.86-3.48,4.12-5.59c1.26-2.11,3-3.34,5.23-3.69l35.92-72.89
		l-0.16-5.54c-0.82,0.17-1.54,0.81-2.17,1.92c-0.55,0.99-0.96,2.03-1.2,3.11c-0.25,1.09-0.62,2.07-1.1,2.93
		c-0.35,0.62-0.82,1.07-1.41,1.35c-0.6,0.28-1.39,0.15-2.38-0.42c0.15-1.56,0.52-3.06,1.1-4.49c0.59-1.43,1.26-2.82,2.02-4.18
		l2.6-4.63c0.55-0.98,1.07-1.97,1.54-2.94c0.47-0.97,0.85-1.98,1.15-3.02l-47.39,84.37L305.61,130.02L305.61,130.02z M77.06,105.72
		l-1.76,9.19l-2.68-15.66L77.06,105.72L77.06,105.72z M100.49,189.62l-4.33-15.48l5.5,12.28L100.49,189.62L100.49,189.62z
		 M110.71,299.54l-0.7,0.69c-0.34-0.82-0.74-1.63-1.21-2.42c-0.47-0.79-0.95-1.61-1.46-2.47c-0.5-0.85-0.99-1.67-1.46-2.47
		c-0.47-0.79-1-1.57-1.6-2.33l-11.66-19.74c-2.73-4.63-10.21-17.48-12.73-22.13c-2.52-4.64-4.81-9.33-6.87-14.06
		c2.85,4.32,5.78,8.86,8.8,13.59c3.02,4.74,10.89,17.88,13.91,22.99c2.81,4.75,5.49,9.48,8.05,14.19
		C106.35,290.1,108.66,294.82,110.71,299.54L110.71,299.54z M117.95,301.29l-1.09,0.71c-3.93-7.64-7.73-15.75-11.38-24.3
		c-3.66-8.56-7.27-17.36-10.85-26.41c-3.85-9.74-13.68-34.95-17.13-44.38c-3.45-9.42-6.73-18.51-9.83-27.29
		c3.93,7.65,7.71,15.69,11.31,24.13c3.61,8.44,13.34,32.7,16.82,41.52l14.85,37.58c0.5,1.72,1.04,3.33,1.64,4.84
		c0.6,1.51,1.22,3.08,1.86,4.7c0.64,1.63,1.26,3.19,1.86,4.7C116.61,298.59,117.25,299.99,117.95,301.29L117.95,301.29z
		 M137.27,284.79l-1.75,0.16l-0.28-7.56c1.19,0.62,1.81,1.65,1.87,3.08l0.11,2.88L137.27,284.79L137.27,284.79z M153.37,166.46
		l1.81,4.01c0,0.59,0.01,1.17,0.01,1.78c0.01,1.02,0.01,2,0.02,2.95c0.01,0.95,0.08,1.86,0.21,2.73l-0.97,0.01
		C153.96,174.22,153.63,170.37,153.37,166.46L153.37,166.46z M154.73,116.55c0.13,3.17,0.26,9.74,0.34,15.75
		c-0.32,0.05-0.6,0.1-0.97,0.13c-0.51,0.05-0.98,0.03-1.43-0.01c0.01-5.78,0.05-11.68,0.13-14.77c0.15-5.83,0.34-11.44,0.57-16.83
		C154.04,105.92,154.5,111.16,154.73,116.55L154.73,116.55z M201.87,105.53l-0.94,4.16l-2.81-16.37L201.87,105.53L201.87,105.53z
		 M214.47,142.83l-0.44-4.05c0.21-0.77,0.34-1.56,0.42-2.37l0.39,4.23C214.85,141.67,214.73,142.39,214.47,142.83L214.47,142.83z
		 M209.7,250.5l-2.1,0.19l-19.72-38.89c3.49,5.95,6.81,12.1,9.97,18.44C201.01,236.58,208.04,243.42,209.7,250.5L209.7,250.5z
		 M227.67,234.08c0.12,3.12-0.48,6-1.78,8.65c-1.3,2.64-2.49,5.22-3.57,7.73c-0.25-0.46-0.4-1.28-0.44-2.49
		c-0.09-2.4,0.58-4.8,2.01-7.23c1.43-2.41,2.68-4.87,3.76-7.38L227.67,234.08L227.67,234.08z M266.98,92.25l4.25-17.72l0.33,9
		L266.98,92.25L266.98,92.25z M244.39,298.84c1.95-4.77,4.16-9.54,6.61-14.3c2.46-4.76,5.04-9.55,7.74-14.36
		c2.91-5.18,10.49-18.49,13.41-23.3c2.91-4.8,5.75-9.4,8.5-13.78c-1.95,4.77-4.14,9.51-6.56,14.21c-2.42,4.7-9.62,17.72-12.26,22.4
		l-11.23,19.99c-0.58,0.77-1.1,1.56-1.55,2.36c-0.45,0.8-0.92,1.64-1.4,2.5c-0.49,0.86-0.95,1.7-1.4,2.5
		c-0.45,0.81-0.84,1.62-1.16,2.45L244.39,298.84L244.39,298.84z M248.52,238.9c-0.14,1.26-0.36,2.5-0.51,3.76l-12.79,30.52
		c0.93,4.32,0.67,8.55-0.78,12.69c-0.9,2.59-1.63,5.17-2.29,7.75c-1.57-1.63-2.42-3.7-2.52-6.24l-0.05-1.44
		c2.6-5.53,4.6-11.25,6.02-17.16c1.41-5.91,2.65-11.86,3.72-17.86c1.06-5.99,2.24-12,3.54-18.02c1.29-6.01-1.61-12.02,0.52-17.75
		c0.53,1.64,0.82,3.24,0.88,4.8c0.06,1.57,0.12,3.19,0.18,4.86C244.61,229.37,249.05,234.15,248.52,238.9L248.52,238.9z
		 M284.85,177.99c-2.91,8.84-6,18.01-9.24,27.5c-3.25,9.5-12.54,34.92-16.18,44.75c-3.38,9.12-6.81,18-10.28,26.64
		c-3.47,8.63-7.09,16.82-10.86,24.55l-1.1-0.68c0.67-1.31,1.28-2.73,1.85-4.25c0.56-1.52,1.15-3.1,1.76-4.74
		c0.61-1.63,1.19-3.21,1.76-4.74c0.56-1.52,1.08-3.14,1.54-4.87l0.3-0.81c0.05,0.23,0.08,0.55,0.13,0.74l3.63-6.1
		c0.42-2.78,0.89-5.55,1.32-8.33l8.67-23.39c3.29-8.89,12.5-33.36,15.93-41.88C277.48,193.85,281.08,185.73,284.85,177.99
		L284.85,177.99z M153.1,86.64c0.03,0.69-0.12,1.42-0.38,2.19c0.04,0,0.08,0,0.11,0c0.7-0.06,1.03-0.45,1.01-1.18
		c-0.01-0.24-0.14-0.53-0.38-0.87C153.21,86.45,153.1,86.4,153.1,86.64L153.1,86.64z M225.63,136.86c0.13-0.14,0.19-0.29,0.19-0.44
		c-0.4-2.47-0.73-4-0.99-4.58c-0.26-0.58-0.52-0.87-0.78-0.87c-1.42,0.01-2.12,0.6-2.11,1.76c0.01,0.88,0.33,1.82,0.98,2.84
		c0.65,1.01,1.23,1.52,1.75,1.52C225.18,137.08,225.5,137.01,225.63,136.86L225.63,136.86z M205.68,67.71
		c0-0.29-0.13-0.62-0.39-0.98c-0.26-0.36-0.39-0.91-0.4-1.64c-1.93,0.45-3.08,1.84-3.45,4.17l2.51,0.42
		c-0.26-0.14-0.04-0.4,0.67-0.77C205.33,68.55,205.68,68.14,205.68,67.71L205.68,67.71z M133.75,118.99
		c1.22-1.79,1.75-2.44,1.3-2.98c-1.22-1.46-2.04-2.07-3.33-2.44c-1.3-0.37-2.66,1.52-3.36,1.58c-0.7,0.06-1.02,0.81-0.97,2.25
		c0.03,0.96,0.3,1.9,0.8,2.82c0.5,0.92,1.1,1.35,1.8,1.29C131.15,121.41,132.53,120.79,133.75,118.99L133.75,118.99z M129.92,104.25
		c-0.01-0.24-0.14-0.53-0.38-0.87c-0.25-0.34-0.37-0.39-0.36-0.15c0.02,0.69-0.12,1.42-0.38,2.19c0.04,0,0.08,0,0.11,0
		C129.61,105.36,129.95,104.97,129.92,104.25L129.92,104.25z M127.44,108.08c0.64-0.94,1.08-1.82,1.37-2.66
		c-1.14,0.09-2.33-0.03-3.58-0.39c-1.3-0.36-2.3-0.52-3-0.45c-0.7,0.06-1.02,0.81-0.97,2.25c0.04,0.96,0.3,1.91,0.81,2.82
		c0.5,0.92,1.1,1.35,1.8,1.28C125.03,110.83,126.22,109.88,127.44,108.08L127.44,108.08z M126.23,99.16c-0.02-0.48-0.27-1-0.76-1.56
		c-0.49-0.55-0.75-1.43-0.8-2.64c-3.47,1.03-5.48,3.5-6.03,7.4l4.57,0.31c-0.48-0.19-0.08-0.65,1.18-1.37
		C125.64,100.6,126.26,99.88,126.23,99.16L126.23,99.16z M62.64,236.83l-2.74,0.98l0.65,1.1L62.64,236.83L62.64,236.83z
		 M100.22,313.01l2.48-0.29c0.55-0.45-1.34-4.94-0.8-5.28C100.52,307.84,101.58,312.44,100.22,313.01L100.22,313.01z M252.68,311.84
		l2.48,0.23c-1.37-0.54-0.41-5.16-1.8-5.53C253.9,306.86,252.12,311.4,252.68,311.84L252.68,311.84z M290.09,251.06l-2.76-0.91
		l2.13,2.03L290.09,251.06L290.09,251.06z"/>
</g>
</svg>
