<svg id="Layer_1" data-name="Layer 1" xmlns="http://www.w3.org/2000/svg" viewBox="0 0 676.92 672.59"><path d="M83.25,429.07c-1.67-37.74-3.16-80.58,23.78-110.62,11.08-12.35,26.35-21.58,43.26-22.09,15.29-.46,29.46,7.26,39.18,18.75,11,13,16.31,31,11.39,47.58a1.5,1.5,0,0,0,2.74,1.15c19.72-32.08,45.25-64.62,82.09-77.43,17.38-6,36.68-7.69,54.5-2.56,17.56,5,31.6,16.91,41.54,32,11,16.81,17.38,36.19,23.38,55.22a1.52,1.52,0,0,0,2.74.36c32.65-44.68,84.78-74.24,139.72-80.24a173.53,173.53,0,0,1,40.49,0c13.27,1.7,27.1,5.67,37.3,14.73,11.29,10,15.55,25.09,16.8,39.69a109.52,109.52,0,0,1-3.78,38.88c-8,28.62-27,54-53.06,68.59l1.52,2.59c21.22-13.27,58-29.62,73,.7,3.24,6.56,5.23,13.78,7.19,20.8a206.57,206.57,0,0,1,4.89,21.55c2.38,14.16,3.09,29-.18,43a64.57,64.57,0,0,1-22.46,36c-11.89,9.61-26.3,15.6-40.33,21.35-30.59,12.53-63.2,23.94-96.75,22.38-30.56-1.43-62.34-14.84-78.76-41.73-.53-.86-2.13-1.09-2.6,0C418,610,402.7,644.7,372.4,661.21c-35.09,19.11-78.18,3.33-102.17-26A102.1,102.1,0,0,1,247.41,577a1.52,1.52,0,0,0-2.56-1.06c-18.57,17.81-38.38,36.72-63.43,44.74-20.86,6.68-44.48,2.9-60.67-12.51-8.29-7.89-13.25-18.42-12.57-30a1.51,1.51,0,0,0-1.5-1.5C84.28,576,64,588.49,41.63,587.9c-10.25-.27-20.4-3.59-27.1-11.7-6.4-7.76-8.82-18.1-10-27.86C1.73,526,2.28,501.48,12,480.75c8.08-17.23,23.2-32.15,42.3-36,9.16-1.85,21.91-.86,27.61-9.9,3.66-5.82,3.56-14.71-3.57-17.63-1.79-.74-2.57,2.16-.8,2.89,4,1.66,4.34,6.54,3.19,10.19-1.55,4.92-5.65,7.46-10.43,8.83-5,1.42-10.22,1.58-15.32,2.45a53.23,53.23,0,0,0-12.8,4c-17,7.66-29.39,23.45-35.68,40.7-7.5,20.57-7.77,44-4.53,65.48,1.35,9,3.91,18.16,9.53,25.45s13.75,11.56,22.7,13c25,4.1,47.69-11.3,72.48-10.55l-1.5-1.5c-1.3,22,16.38,38.75,35.89,45.43,24.54,8.42,49.48-.54,70-14.74,13-9,24.55-19.9,35.94-30.83L244.41,577c2.27,38.51,26.66,74.79,62.77,89.3,18.31,7.36,39.32,8.82,57.92,1.61,16.17-6.27,29.11-18.09,39.33-31.87,12.35-16.64,20.95-35.75,29-54.75h-2.6c15.06,24.66,42.61,38.44,70.61,42.23,34.78,4.71,69.49-6,101.46-18.73,14.94-5.94,30.36-11.9,43.59-21.19,12.2-8.57,21.5-20.14,26.25-34.35s5-29.82,3-44.65a191.17,191.17,0,0,0-11-44.38c-2.92-7.5-7.09-14.45-13.9-19-5.9-3.95-13.06-5.45-20.09-5.21-16.29.56-31.9,8.64-45.44,17.1a1.5,1.5,0,0,0,1.52,2.59c23.7-13.32,41.72-35.35,51.26-60.71a115.22,115.22,0,0,0,7.45-39.68c.09-14.41-2.21-30.18-10.27-42.43-15.68-23.84-48.57-26.67-74.49-25.63a204.46,204.46,0,0,0-82.14,21.25,202,202,0,0,0-73.39,61.47l2.74.36c-10.64-33.76-24.21-72.43-59.83-86.86-36.48-14.77-77.26.58-105,25.64-16.89,15.25-30.29,34-42.15,53.26l2.74,1.16c8.95-30.24-14.09-65-45.08-69.63-36.59-5.47-65.21,28.49-73.95,60.42-6.65,24.31-5.57,49.87-4.47,74.79.09,1.92,3.09,1.93,3,0Z"/><path d="M525.47,513.14a1.5,1.5,0,0,0,0-3,1.5,1.5,0,0,0,0,3Z"/><path d="M375.9,3a1.5,1.5,0,0,0,0-3,1.5,1.5,0,0,0,0,3Z"/></svg>