<?xml version="1.0" encoding="utf-8"?>
<!-- Generator: Adobe Illustrator 26.2.1, SVG Export Plug-In . SVG Version: 6.00 Build 0)  -->
<svg version="1.1" id="Layer_1" xmlns="http://www.w3.org/2000/svg" xmlns:xlink="http://www.w3.org/1999/xlink" x="0px" y="0px"
	 viewBox="0 0 1395 1038" style="enable-background:new 0 0 1395 1038;" xml:space="preserve">
<g>
	<g>
		<path d="M136.56,310.66c1.15-36.18,2.18-73.96,16.89-107.67c11.98-27.46,33.85-52.76,63.47-61.22
			c34.81-9.95,71.2,5.23,100.1,24.09c26.21,17.11,49.15,39.21,67.51,64.54c20.55,28.37,35.24,60.64,43,94.8
			c0.3,1.31,2.08,1.4,2.74,0.36c42.52-67.05,94.55-127.9,154.33-180.16c29.39-25.69,60.79-52.63,97.9-66.29
			c17.5-6.44,36.8-9.8,55.15-5.07c18.64,4.8,33.44,17.48,43.29,33.74c23.62,38.97,18.25,86.74,30.98,129.14
			c0.49,1.64,2.87,1.29,2.95-0.4c3.31-74.89,44.87-145.52,106.13-188.03c31.13-21.6,68.57-37.18,106.72-39.1
			c19.88-1,40.54,1.96,57.86,12.3c18.91,11.29,30.6,30.44,37.2,51.01c15.85,49.41,10.37,105.8-9.7,153.12
			c-0.62,1.47,1.05,3.12,2.36,1.82c55.42-55.29,135.05-84.26,213.07-78.1c10.17,0.8,20.32,2.16,30.3,4.25
			c12.01,2.5,22.28,7.52,24.83,20.6c1.94,9.96,0.36,20.93-0.58,30.93c-1.05,11.06-2.55,22.08-4.51,33.02
			c-7.43,41.49-21.22,81.82-40.75,119.17c-10.93,20.9-23.65,40.88-38.03,59.59c-12.71,16.54-37.16,41.1-59.52,26.7
			c-1.08-0.69-2.61,0.46-2.2,1.69c20.52,61.97,31.05,128.4,27.68,193.73c-1.54,29.84-6.95,60.36-22.06,86.54
			c-13.47,23.33-34.23,41.17-57.93,53.59c-50.5,26.46-111.81,31.11-167.72,26.31c-60.43-5.19-122.48-23.51-173.54-56.82
			c-48.83-31.86-93.46-83.68-87.55-145.62c0.17-1.8-2.39-1.86-2.95-0.4c-30.84,81.38-79.17,164.34-164.52,197.06
			c-39.13,15-82.65,17.1-121.78,0.96c-37.68-15.54-68.8-45.57-87.98-81.3c-24.97-46.53-30.05-101.45-21.49-152.98
			c0.19-1.13-1.03-2.56-2.2-1.69c-25.73,18.9-52.97,35.66-81.53,49.92c-24.89,12.42-51.54,22.73-79.45,25.32
			c-27.13,2.51-55.81-3.46-75.05-24.03c-18.38-19.65-25.28-49.6-16.7-75.18c9.92-29.57,39.47-50.09,70.37-50.59
			c-0.13-0.98-0.27-1.96-0.4-2.95c-52.42,22.01-114.51,2.96-144.28-45.74C2.25,397.93,4.96,329.05,53.91,301.46
			c24.84-14,58.55-12.12,79.27,8.36c1.37,1.36,3.5-0.76,2.12-2.12c-18.29-18.08-46.32-22.46-70.31-14.39
			c-24.98,8.4-42.67,29.99-50.88,54.49C-4.1,402.15,25.42,464.93,76.93,488.6c30.47,14.01,66.2,14.59,97.1,1.62
			c1.44-0.61,1.44-2.98-0.4-2.95c-26.52,0.43-51.79,14.77-65.9,37.25c-14.23,22.67-14.33,51.78-2.48,75.48
			c28.64,57.29,101.04,47.51,150.07,26.92c36.28-15.24,70.54-36.25,102.19-59.5c-0.73-0.56-1.47-1.13-2.2-1.69
			c-7.74,46.61-4.59,95.47,14.09,139.23c16.12,37.78,44.34,70.6,80.43,90.55c80.24,44.37,174.83,6.86,231.54-57.64
			c34.23-38.93,57.25-86.16,75.5-134.3c-0.98-0.13-1.96-0.27-2.95-0.4c-5.22,54.63,28.77,102.3,69.96,134.56
			c48.11,37.68,109.44,59.22,169.43,68.01c58.09,8.51,121.89,6.62,176.84-15.93c24.24-9.95,46.94-24.48,63.74-44.83
			c18.35-22.21,27.9-49.79,32.11-78c5.31-35.54,3.83-72.41-0.08-108.01c-4.27-38.89-12.71-77.2-25-114.33
			c-0.73,0.56-1.47,1.13-2.2,1.69c15.97,10.29,34.07,1.39,47.04-9.67c16.8-14.33,29.43-34.75,40.85-53.4
			c23.96-39.13,41.4-82.28,51.38-127.06c4.9-21.99,8.16-44.5,9.25-67.01c0.44-9.06,0.24-19.15-5.34-26.79
			c-5.45-7.46-14.75-10.02-23.36-11.76c-40.77-8.22-83.56-6.04-123.62,4.87c-45.73,12.46-88.03,36.48-121.61,69.98
			c0.79,0.61,1.57,1.21,2.36,1.82c29.5-69.53,35.73-207.18-64.52-220.11c-39.04-5.03-79.82,8.07-113.47,27.22
			c-33.71,19.18-62.64,46.53-84.3,78.67c-24.62,36.54-39.55,79.31-41.5,123.41c0.98-0.13,1.96-0.27,2.95-0.4
			c-11.99-39.92-8.08-83.73-26.84-121.74c-7.48-15.16-18.54-28.75-33.54-36.94c-15.22-8.3-32.75-10.11-49.7-7.4
			c-38.85,6.2-71.89,31.47-101.53,55.71c-32.29,26.4-62.56,55.26-90.5,86.23c-31.46,34.87-59.88,72.41-85.03,112.07
			c0.91,0.12,1.83,0.24,2.74,0.36c-14.42-63.47-53.03-120.66-106.64-157.62c-27.76-19.13-61.95-35.12-96.51-30.25
			c-31.35,4.42-56.22,27.02-71.04,54.03c-20.01,36.48-21.37,79.51-22.66,120.1C133.49,312.59,136.49,312.59,136.56,310.66
			L136.56,310.66z"/>
	</g>
</g>
<g>
	<g>
		<path d="M1072.21,219.29c1.93,0,1.93-3,0-3C1070.28,216.29,1070.28,219.29,1072.21,219.29L1072.21,219.29z"/>
	</g>
</g>
<g>
	<g>
		<path d="M535.37,607.01c1.93,0,1.93-3,0-3C533.44,604.01,533.43,607.01,535.37,607.01L535.37,607.01z"/>
	</g>
</g>
<g>
	<g>
		<path d="M234.51,708.78c-3.91,17.42-6,35.24-6.15,53.1c-0.04,4.51,0.04,9.02,0.25,13.52c0.16,3.58,0.05,7.87,3.15,10.32
			c2.74,2.16,6.86,2.45,10.21,2.52c3.64,0.08,7.32-0.45,10.8-1.52c6.97-2.14,13.02-6.42,17.37-12.26c4.33-5.81,6.71-12.9,7.5-20.06
			c0.87-7.88-0.43-15.91-3-23.36c-2.54-7.37-6.19-14.69-10.89-20.93c-3.98-5.27-9.86-10.66-16.93-10.49
			c-5.87,0.14-12.35,4.48-13.23,10.59c-0.22,1.51-0.06,3.02,0.47,4.45c0.66,1.8,3.56,1.02,2.89-0.8c-2-5.43,3.39-10.12,8.3-11.07
			c6.21-1.21,11.86,3.73,15.43,8.22c4.4,5.52,7.81,12.17,10.32,18.74c2.59,6.79,4.16,14.02,3.89,21.31
			c-0.48,13.25-7.21,26.24-19.78,31.63c-5.86,2.51-13.27,3.59-19.47,1.67c-1.57-0.49-2.82-1.38-3.36-2.99
			c-0.54-1.6-0.53-3.34-0.61-5.01c-0.2-4.1-0.31-8.21-0.31-12.32c0-16.3,1.6-32.59,4.8-48.57c0.4-1.97,0.82-3.94,1.26-5.91
			C237.82,707.7,234.93,706.89,234.51,708.78L234.51,708.78z"/>
	</g>
</g>
<g>
	<g>
		<path d="M363.59,808.07c-8.23,12.34-13.37,26.9-14.37,41.72c-0.49,7.25,0.28,14.87,3.89,21.3c3.02,5.38,8.04,9.92,14.16,11.34
			c6.25,1.45,12.78-0.51,17.88-4.23c5.57-4.07,9.25-9.81,11.48-16.28c2.39-6.93,3.1-14.33,3.62-21.59
			c0.5-6.98,0.74-14.25-1.35-21.01c-1.82-5.86-5.42-10.91-11.05-13.59c-4.76-2.26-10.68-2.93-15.4-0.17
			c-1.12,0.65-2.13,1.49-2.99,2.45c-1.29,1.43,0.82,3.56,2.12,2.12c3.31-3.66,8.4-4.03,12.88-2.55c5.09,1.68,8.8,5.52,10.8,10.43
			c2.46,6.05,2.52,12.78,2.18,19.2c-0.34,6.56-0.86,13.21-2.44,19.61c-1.5,6.09-4.09,12-8.63,16.44c-4.12,4.03-9.72,6.91-15.6,6.65
			c-5.72-0.26-10.74-3.81-13.9-8.43c-3.8-5.56-4.93-12.36-4.78-18.99c0.33-15.18,5.71-30.34,14.08-42.91
			C367.25,807.97,364.65,806.47,363.59,808.07L363.59,808.07z"/>
	</g>
</g>
<g>
	<g>
		<path d="M278.44,900.01c-3.26,10.44-5.96,21.05-8.06,31.79c-1.89,9.67-3.73,19.61-3.64,29.5c0.08,9.17,2.19,18.34,8.12,25.55
			c5.74,6.98,14.15,11.57,22.05,15.69c7.3,3.81,16.2,7.57,24.57,5.54c4.09-0.99,7.55-3.54,9.88-7.01c2.5-3.72,3.67-8.17,4.77-12.46
			c2.66-10.34,5.19-21.1,2.6-31.73c-2.31-9.49-7.94-17.81-13.98-25.32c-11.65-14.47-26.49-26.43-43.1-34.76
			c-2.08-1.04-4.19-2.03-6.32-2.96c-1.75-0.77-3.28,1.82-1.51,2.59c16.33,7.13,31.1,17.62,43.18,30.72
			c6.15,6.67,11.97,14.03,15.88,22.26c1.99,4.18,3.4,8.71,3.82,13.34c0.47,5.24-0.16,10.48-1.21,15.61
			c-0.97,4.76-2.11,9.55-3.55,14.18c-1.22,3.91-2.98,7.9-6.38,10.4c-6.69,4.91-15.88,2.18-22.74-0.88
			c-3.9-1.74-7.65-3.84-11.34-5.98c-3.73-2.16-7.39-4.49-10.62-7.36c-6.68-5.95-10.13-13.92-10.9-22.76
			c-0.81-9.19,0.64-18.45,2.23-27.49c1.79-10.22,4.12-20.35,6.96-30.33c0.7-2.46,1.43-4.9,2.2-7.34
			C281.91,898.96,279.01,898.17,278.44,900.01L278.44,900.01z"/>
	</g>
</g>
<g>
	<g>
		<path d="M514.07,921.59c-16.64,2.42-34.17,6.23-46.57,18.47c-5.09,5.02-9.11,11.39-10.57,18.45c-1.31,6.34-0.71,13.02,1.45,19.11
			c4.52,12.72,15.92,23.33,29.85,23.97c4.07,0.19,8.2-0.68,11.7-2.81c3.11-1.89,5.61-4.61,7.58-7.65
			c4.19-6.43,6.25-14.27,7.41-21.77c2.53-16.38,0.03-33.41-7.22-48.33c-0.92-1.89-1.92-3.73-2.98-5.54
			c-0.98-1.66-3.57-0.15-2.59,1.51c7.91,13.42,11.57,29.12,10.63,44.66c-0.45,7.52-1.9,15.24-4.82,22.21
			c-2.62,6.25-6.97,12.34-13.85,14.15c-6.85,1.8-14.41-0.51-20.12-4.42c-4.93-3.37-8.78-8.18-11.34-13.54
			c-2.59-5.41-3.79-11.51-3.28-17.49c0.55-6.52,3.48-12.64,7.68-17.6c10.36-12.23,26.25-16.92,41.5-19.5
			c2.11-0.36,4.22-0.68,6.34-0.99C516.78,924.21,515.97,921.32,514.07,921.59L514.07,921.59z"/>
	</g>
</g>
<g>
	<g>
		<path d="M635.35,899.6c-13.04,9.16-23.13,22.2-28.67,37.15c-4.46,12.03-6.12,29.68,6.33,37.7c6.54,4.21,14.99,3.65,21.97,0.91
			c7.05-2.77,13.11-7.69,17.74-13.64c9.18-11.77,12.94-27.66,8.94-42.16c-3.84-13.93-14.28-25.96-27.56-31.67
			c-1.67-0.72-3.37-1.34-5.11-1.86c-1.85-0.56-2.65,2.34-0.8,2.89c12.91,3.87,23.69,13.9,28.83,26.33
			c5.33,12.89,3.81,27.64-3.22,39.59c-3.5,5.95-8.36,11.21-14.23,14.88c-5.93,3.7-13.53,6.04-20.47,4.16
			c-13.84-3.74-14.23-20.78-10.96-32.04c4.11-14.14,12.97-26.95,24.28-36.29c1.43-1.18,2.92-2.3,4.44-3.37
			C638.43,901.09,636.93,898.49,635.35,899.6L635.35,899.6z"/>
	</g>
</g>
<g>
	<g>
		<path d="M763.03,798.66c-16.09,3.31-36.9-6.83-49.64,7.51c-5.73,6.46-7.96,15.49-8.61,23.91c-0.63,8.18,0.5,16.61,3.91,24.12
			c3.44,7.59,9.44,13.8,17.15,17.08c7.7,3.27,16.52,3.69,24.57,1.46c16.54-4.58,27.98-20.36,30.35-36.92
			c1.99-13.89-3.33-31.29-16.91-37.6c-1.66-0.77-3.38-1.36-5.16-1.75c-1.88-0.41-2.69,2.48-0.8,2.89
			c13.87,3.01,20.52,18.31,20.3,31.33c-0.26,15.32-9.56,30.98-23.66,37.39c-7.1,3.23-15.43,3.92-22.97,1.98
			c-7.61-1.96-14.07-6.71-18.18-13.42c-4.01-6.55-5.7-14.31-5.76-21.93c-0.06-7.83,1.36-16.29,5.45-23.07
			c2.07-3.43,4.94-6.23,8.55-8c3.48-1.71,7.4-2.28,11.24-2.38c8.35-0.22,16.64,1.53,25,1.06c2-0.11,4-0.36,5.96-0.77
			C765.72,801.16,764.92,798.27,763.03,798.66L763.03,798.66z"/>
	</g>
</g>
<g>
	<g>
		<path d="M894.18,847.47c-6.32,15.24-9.93,31.93-9.88,48.46c0.04,12.75,2.85,27.15,12.88,35.96c5.29,4.64,12.55,7.59,19.26,4.16
			c5.65-2.88,9.03-9.11,10.9-14.92c4.01-12.49,3.23-26.65-0.72-39.04c-4.01-12.59-11.52-24.19-21.82-32.53
			c-1.27-1.03-2.59-2.02-3.93-2.95c-1.59-1.11-3.09,1.49-1.51,2.59c10.19,7.1,18.05,17.4,22.66,28.91
			c4.58,11.45,6.18,24.19,3.88,36.35c-1.1,5.81-3.04,11.86-7.25,16.2c-1.92,1.98-4.36,3.51-7.14,3.87
			c-3.64,0.47-7.17-1.07-10.1-3.11c-10.31-7.2-13.58-20.69-14.04-32.57c-0.59-15.19,2.36-30.72,7.52-44.96
			c0.68-1.89,1.42-3.76,2.19-5.62C897.81,846.49,894.91,845.71,894.18,847.47L894.18,847.47z"/>
	</g>
</g>
<g>
	<g>
		<path d="M804.55,908.03c-12.51,16.08-20.97,35.67-23.2,55.99c-1.05,9.57-0.37,19.79,4.41,28.36c4.72,8.47,13.09,13.87,21.68,17.82
			c9.03,4.15,20.24,9.15,30.14,5.05c8.31-3.45,12.81-12.12,15.29-20.3c5.48-18.06,3.88-37.96-3.65-55.19
			c-3.76-8.6-9.08-16.67-15.81-23.24c-6.68-6.51-15.07-11.87-24.39-13.43c-2.31-0.39-4.64-0.56-6.98-0.48c-1.93,0.06-1.93,3.06,0,3
			c18.32-0.61,33.26,14.37,41.48,29.34c8.53,15.54,11.63,34.15,8.32,51.59c-1.53,8.06-4.17,16.98-10.4,22.71
			c-7.78,7.16-18.38,4.22-27.12,0.67c-8.27-3.35-16.78-7.41-22.69-14.3c-6.07-7.08-7.92-16.55-7.7-25.65
			c0.23-9.5,2.43-19.01,5.51-27.97c3.15-9.17,7.52-17.91,12.94-25.94c1.36-2.02,2.79-3.99,4.28-5.91
			C807.84,908.64,805.73,906.5,804.55,908.03L804.55,908.03z"/>
	</g>
</g>
<g>
	<g>
		<path d="M1053.77,863.95c-9.06,5.7-17.65,13.14-21.57,23.38c-3.25,8.5-2.02,18.92,3.93,25.96c6.44,7.62,17.42,8.22,25.64,3.16
			c9.46-5.83,12.73-17.26,10.67-27.78c-2.44-12.45-12.02-21.95-22.57-28.19c-1.67-0.99-3.18,1.61-1.51,2.59
			c8.5,5.03,16.49,12.22,19.91,21.74c3.26,9.07,2.34,20.27-5.2,26.97c-6.37,5.67-16.55,7.13-23.17,1.08
			c-5.94-5.43-7.68-14.61-5.63-22.18c2.9-10.69,12.01-18.47,21.03-24.14C1056.92,865.51,1055.41,862.91,1053.77,863.95
			L1053.77,863.95z"/>
	</g>
</g>
<g>
	<g>
		<path d="M1009.09,949.61c-12.29-5.67-27.48-2.01-36.77,7.57c-5.24,5.4-8.04,12.42-8.42,19.91c-0.45,8.93,2.39,17.87,6.71,25.6
			c3.94,7.06,9.4,13.56,16.52,17.56c7.02,3.95,15.93,5.27,23.57,2.31c7.85-3.04,12.79-10.08,15.73-17.69
			c2.62-6.77,3.65-14.16,3.23-21.39c-0.83-14.48-7.28-28.78-18.21-38.43c-1.37-1.21-2.81-2.33-4.29-3.39
			c-1.57-1.12-3.07,1.48-1.51,2.59c11,7.84,18.11,20.32,20.37,33.53c1.11,6.51,0.99,13.29-0.48,19.74c-1.6,7-4.71,14.2-10.28,18.94
			c-5.88,5-14.19,5.72-21.37,3.48c-7.2-2.24-13.11-7.52-17.43-13.57c-8.61-12.08-14.03-30.11-5.01-43.44
			c6.74-9.97,20.28-15.26,31.96-12.21c1.42,0.37,2.81,0.86,4.14,1.47C1009.32,953,1010.84,950.41,1009.09,949.61L1009.09,949.61z"/>
	</g>
</g>
<g>
	<g>
		<path d="M1205.9,848.46c-9.74-1.31-19.59-1.56-29.38-0.61c-8.71,0.85-17.63,2.34-25.77,5.68c-7.31,3-14.1,7.64-18.18,14.57
			c-3.73,6.34-5.26,14.44-2.41,21.42c2.84,6.97,9.18,11.32,15.97,13.97c7.32,2.86,15.61,4.41,23.46,4.38
			c8.28-0.03,16.31-2.49,22.28-8.41c5.47-5.42,8.94-12.8,11.05-20.12c3.48-12.05,3.46-28.22-6.68-37.21c-1.2-1.07-2.52-2-3.92-2.8
			c-1.68-0.96-3.19,1.64-1.51,2.59c11.04,6.27,12.48,20.78,10.31,32.08c-1.29,6.73-3.87,13.44-7.79,19.07
			c-4.39,6.31-10.77,10.31-18.39,11.43c-7.46,1.1-15.33-0.16-22.55-2.12c-6.36-1.73-13.1-4.54-17.18-9.97
			c-4.24-5.64-4.34-12.96-1.78-19.33c2.74-6.83,8.33-11.82,14.78-15.12c7.1-3.63,15.09-5.34,22.93-6.47
			c8.97-1.29,18.1-1.55,27.13-0.85c2.28,0.18,4.56,0.41,6.82,0.72c0.81,0.11,1.6-0.19,1.85-1.05
			C1207.15,849.6,1206.71,848.56,1205.9,848.46L1205.9,848.46z"/>
	</g>
</g>
<g>
	<g>
		<path d="M1135.36,943.96c-16.09-0.15-32.13,3.61-46.47,10.9c-6.13,3.12-13.22,6.99-16.28,13.5c-3.42,7.28-0.31,15.16,3.73,21.48
			c3.82,5.96,8.77,11.59,15.28,14.67c5.46,2.58,11.59,3.06,17.47,1.82c12.09-2.56,22.3-11.96,25.89-23.75
			c4.19-13.73,0.3-28.94-7.48-40.64c-0.98-1.48-2.04-2.9-3.15-4.3c-1.2-1.51-3.31,0.62-2.12,2.12
			c8.07,10.17,13.07,23.86,11.02,36.91c-0.92,5.89-3.22,11.49-7.13,16.03c-3.6,4.18-8.25,7.53-13.43,9.45
			c-5.02,1.86-10.55,2.47-15.77,1.12c-6.26-1.62-11.32-5.97-15.22-10.99c-4.08-5.24-8.67-12.44-7.44-19.4
			c1.17-6.61,7.37-10.63,12.79-13.65c13.04-7.29,27.81-11.49,42.73-12.18c1.85-0.09,3.71-0.11,5.56-0.1
			C1137.29,946.98,1137.29,943.98,1135.36,943.96L1135.36,943.96z"/>
	</g>
</g>
<g>
	<g>
		<path d="M199.62,828.78c-19.61,3.65-37.04,16.98-46.15,34.67c-2.36,4.59-4.39,9.6-5.31,14.69c-0.53,2.93-0.64,6.01,0.32,8.86
			c0.81,2.4,2.24,4.52,4.02,6.31c3.63,3.63,8.5,5.93,13.33,7.49c4.87,1.56,10.02,2.3,15.13,2.26c10.26-0.08,20.57-3.24,29.04-9.06
			c8.62-5.92,15.05-14.46,18.93-24.13c3.87-9.63,5.06-20.29,3.48-30.54c-1.54-10.02-6.14-20.9-15.4-26.06
			c-7.84-4.37-19.2-3.68-24.86,3.89c-4.72,6.31-2.49,16.76,4.31,20.71c1.65,0.96,3.51,1.43,5.41,1.44c1.93,0.01,1.93-2.99,0-3
			c-7.19-0.03-10.79-9.12-8.55-15.12c2.97-7.95,13.89-9.06,20.69-6.07c8.85,3.88,13.35,13.82,15.12,22.77
			c1.83,9.28,1.07,19.03-1.92,27.99c-2.98,8.94-8.31,17.12-15.58,23.16c-7.24,6.01-16.46,9.76-25.81,10.74
			c-9.24,0.98-19.21-0.55-27.21-5.48c-4.07-2.51-7.59-6.26-7.84-11.27c-0.25-4.95,1.69-10.15,3.66-14.63
			c7.31-16.64,22.06-29.87,39.48-35.14c2.14-0.65,4.32-1.17,6.52-1.58C202.31,831.32,201.51,828.43,199.62,828.78L199.62,828.78z"/>
	</g>
</g>
<g>
	<g>
		<path d="M1219.96,924.13c-6.77,4.72-11.36,11.67-14.81,19.05c-3.87,8.28-7.07,17.12-8.7,26.13c-1.59,8.78-1.7,18.31,1.7,26.7
			c2.87,7.08,8.02,13.33,14.65,17.18c6.47,3.76,14.31,4.91,21.37,2.15c7.32-2.85,13-8.92,16.57-15.8
			c7.64-14.71,6.37-32.03,0.76-47.18c-2.94-7.95-6.98-15.48-11.8-22.44c-2.24-3.23-4.52-6.37-7.66-8.77
			c-2.7-2.06-6.17-3.83-9.66-3.23c-1.62,0.28-3.03,1.14-4.11,2.36c-1.28,1.44,0.84,3.57,2.12,2.12c2.13-2.41,5.21-1.66,7.73-0.25
			c3.17,1.77,5.49,4.42,7.59,7.32c4.54,6.25,8.46,12.98,11.48,20.1c5.81,13.72,8.35,29.52,3.04,43.81
			c-2.52,6.78-6.86,13.23-13.06,17.13c-5.95,3.75-13.01,4.36-19.53,1.74c-6.46-2.6-11.77-7.86-15.08-13.91
			c-3.9-7.11-4.68-15.49-3.89-23.45c0.86-8.71,3.66-17.18,6.93-25.26c2.83-6.98,6.3-14,11.68-19.39c1.3-1.3,2.69-2.48,4.2-3.53
			C1223.05,925.63,1221.55,923.03,1219.96,924.13L1219.96,924.13z"/>
	</g>
</g>
<g>
	<g>
		<path d="M1252.95,804.05c-6.91,0.58-11.11,6.23-13.33,12.32c-1.17,3.21-1.8,6.57-2.14,9.96c-0.48,4.88-0.65,9.78-0.52,14.68
			c0.26,9.05,1.37,18.39,4.01,27.08c2,6.58,5.18,13.38,10.56,17.87c5.28,4.41,12.46,5.94,18.95,3.42
			c6.7-2.61,11.74-8.37,15.13-14.55c3.87-7.06,5.67-15.14,6.32-23.11c0.69-8.42-0.15-17.03-2.6-25.12
			c-4.34-14.35-15.08-30.21-31.33-31.78c-1.86-0.18-3.71-0.08-5.56,0.18c-1.9,0.27-1.09,3.16,0.8,2.89
			c6.95-0.97,13.77,2.05,18.97,6.49c5.61,4.78,9.68,11.07,12.42,17.87c5.7,14.16,6.22,31.03,0.96,45.42
			c-4.04,11.05-15.62,25.03-28.77,18.25c-5.54-2.85-9.11-8.53-11.38-14.15c-2.94-7.28-4.26-15.29-5-23.07
			c-0.42-4.48-0.59-8.98-0.49-13.48c0.09-4.01,0.25-8.1,0.97-12.05c0.98-5.42,3.1-12.05,8.21-14.95c1.18-0.67,2.48-1.06,3.82-1.17
			C1254.86,806.89,1254.88,803.89,1252.95,804.05L1252.95,804.05z"/>
	</g>
</g>
<g>
	<g>
		<path d="M123.16,692.23c-8.56,13.24-13.76,28.53-15.19,44.23c-0.35,3.87-0.47,7.76-0.34,11.65c0.13,3.87,0.39,7.81,1.35,11.57
			c1.7,6.66,6.7,13.26,14.17,13.38c7.13,0.12,11.09-6.55,13.39-12.37c2.79-7.03,4.82-14.4,6.11-21.85
			c2.53-14.65,2.17-30.05-2.88-44.15c-1.26-3.51-2.79-6.93-4.6-10.19c-1.63-2.94-3.61-6.12-6.89-7.4c-3.13-1.22-6.52,0.07-8.62,2.56
			c-2.54,3-2.95,6.8-2.28,10.56c0.37,2.12,1.08,4.16,1.79,6.18c0.64,1.81,3.53,1.03,2.89-0.8c-1.23-3.52-2.79-7.59-1.62-11.33
			c0.81-2.61,3.41-5.31,6.37-4.51c2.88,0.78,4.54,4.02,5.87,6.43c1.65,2.98,3.05,6.09,4.2,9.3c4.58,12.78,5.26,26.73,3.27,40.09
			c-1,6.72-2.65,13.34-4.84,19.77c-1.72,5.03-3.9,12.39-9.55,14.31c-2.92,0.99-6.04,0.04-8.44-1.75c-2.7-2.01-4.31-5.04-5.23-8.22
			c-0.95-3.27-1.24-6.68-1.4-10.07c-0.18-3.59-0.14-7.2,0.09-10.79c1.06-15.99,6.27-31.63,14.97-45.08
			C126.8,692.12,124.21,690.61,123.16,692.23L123.16,692.23z"/>
	</g>
</g>
<g>
	<g>
		<path d="M148.94,944.41c-12.31,4.17-19.6,16.89-19.16,29.55c0.46,13.16,8.04,26.49,19.53,33.11c5.23,3.02,11.26,4.47,17.28,3.64
			c5.69-0.79,11.29-3.51,14.96-8.01c9.44-11.61,2.28-27.05-3.84-38.36c-3.61-6.66-7.56-13.5-13.82-18.03
			c-5.8-4.2-13.57-5.92-20.25-2.88c-1.75,0.8-0.23,3.38,1.51,2.59c5.32-2.42,11.56-0.85,16.27,2.22c5.26,3.42,8.82,8.92,11.86,14.28
			c3.14,5.53,6.24,11.22,8.19,17.3c1.89,5.9,2.63,12.54-0.38,18.21c-5.1,9.61-17.8,12-27.23,7.98
			c-10.99-4.68-18.61-16.05-20.62-27.59c-1.14-6.58-0.27-13.49,2.96-19.37c2.96-5.37,7.68-9.77,13.54-11.75
			C151.56,946.69,150.78,943.79,148.94,944.41L148.94,944.41z"/>
	</g>
</g>
<g>
	<g>
		<path d="M547.86,850.03c-10.36-2.74-20.38,4.78-24.01,14.2c-3.87,10.07,1.05,20.62,9.29,26.78c8.67,6.48,21.91,8.69,31.47,2.81
			c8.75-5.38,11.33-17.02,8.58-26.44c-3.57-12.19-15.31-19.86-26.73-23.73c-1.83-0.62-2.62,2.28-0.8,2.89
			c9.37,3.17,18.57,8.85,23.17,17.92c3.81,7.52,3.35,17.97-2.66,24.26c-7,7.33-19.34,6.57-27.67,2.13
			c-7.79-4.14-14.35-12.61-12.85-21.86c1.56-9.61,11.26-18.75,21.41-16.07C548.94,853.42,549.73,850.53,547.86,850.03L547.86,850.03
			z"/>
	</g>
</g>
</svg>
